<svg id="Blob" xmlns="http://www.w3.org/2000/svg" width="575" height="575" viewBox="0 0 575 575">
  <path id="Path_5" data-name="Path 5" d="M448.148,172.343c67.018-7.817,137.69,9.017,189.1,52.7,51.216,43.516,70.118,111.39,81.889,177.551,11.79,66.269,23.315,140.273-15.567,195.22C665.892,651.07,589.241,647.337,528.718,671.7c-63.971,25.75-119.631,85.113-187.314,71.9-71.482-13.953-126.732-74.51-159.419-139.584-31.345-62.4-34.257-136.409-12.554-202.78C189.042,341.261,244,305.276,292.766,265.227c48.081-39.486,93.58-85.675,155.382-92.883" transform="translate(-155.391 -170.493)" fill="#74c69d" opacity="0.99"/>
</svg>
